<svg width="159" height="52" viewBox="0 0 159 52" fill="none" xmlns="http://www.w3.org/2000/svg">
<g opacity="0.8">
<path d="M1 3.08338L10.9333 5.1668V19.7507H28.7086V5.1668L38.6419 3.08338V48.9185L28.7086 44.7517V30.1678H10.9333V44.7517L1 48.9185V3.08338Z" stroke="white" stroke-width="1.2" stroke-linejoin="round"/>
<path d="M4.52894 1L13.9394 3.224V19.7508H25.7025V3.224L35.113 1V51L25.7025 46.5431V30.1678H13.9394V46.5431L4.52894 51V1Z" stroke="white" stroke-width="1.2" stroke-linejoin="round"/>
</g>
<path d="M49.5186 33.6363V19.3394H52.5752V25.0718H58.7764V19.3394H61.8331V33.6363H58.7764V27.6597H52.5752V33.6363H49.5186ZM72.0284 28.8609C72.0284 28.0797 71.8005 27.4579 71.3448 26.9957C70.8891 26.5269 70.2771 26.2925 69.5088 26.2925C68.7406 26.2925 68.1319 26.5237 67.6827 26.9859C67.2335 27.4481 67.0088 28.0731 67.0088 28.8609C67.0088 29.6422 67.2335 30.2672 67.6827 30.7359C68.1319 31.2047 68.7406 31.439 69.5088 31.439C70.2706 31.439 70.8793 31.2047 71.335 30.7359C71.7973 30.2672 72.0284 29.6422 72.0284 28.8609ZM74.8604 28.8804C74.8604 30.3518 74.3558 31.5757 73.3467 32.5523C72.3441 33.5289 71.0713 34.0172 69.5284 34.0172C67.9724 34.0172 66.6898 33.5289 65.6807 32.5523C64.6716 31.5757 64.167 30.3518 64.167 28.8804C64.167 27.4156 64.6749 26.1916 65.6905 25.2086C66.7061 24.2255 67.9854 23.7339 69.5284 23.7339C71.0779 23.7339 72.3539 24.219 73.3565 25.189C74.3591 26.1591 74.8604 27.3895 74.8604 28.8804ZM76.0323 31.9566L78.171 30.8531C78.2426 31.2242 78.4346 31.5172 78.7471 31.732C79.0596 31.9468 79.447 32.0543 79.9092 32.0543C80.365 32.0543 80.723 31.9729 80.9835 31.8101C81.2439 31.6408 81.3741 31.4097 81.3741 31.1168C81.3741 30.6545 80.9118 30.2672 79.9874 29.9547C79.7009 29.857 79.473 29.7756 79.3038 29.7105C78.1775 29.2873 77.3962 28.8609 76.96 28.4312C76.5303 28.0015 76.3155 27.4709 76.3155 26.8394C76.3155 25.9019 76.6833 25.1435 77.419 24.564C78.1547 23.9846 79.1247 23.6949 80.3292 23.6949C81.1885 23.6949 81.9307 23.8674 82.5557 24.2125C83.1872 24.5575 83.6462 25.0458 83.9327 25.6773L81.8917 26.6929C81.781 26.3349 81.5889 26.0647 81.3155 25.8824C81.042 25.6936 80.7002 25.5992 80.2901 25.5992C79.8799 25.5992 79.5479 25.6838 79.294 25.8531C79.0401 26.0224 78.9131 26.2437 78.9131 26.5172C78.9131 26.9924 79.5446 27.4351 80.8077 27.8453C80.9574 27.8908 81.0713 27.9267 81.1495 27.9527C82.1976 28.2977 82.9431 28.7014 83.3858 29.1636C83.8285 29.6194 84.0499 30.202 84.0499 30.9117C84.0499 31.8622 83.682 32.6174 82.9463 33.1773C82.2107 33.7372 81.2178 34.0172 79.9678 34.0172C78.9782 34.0172 78.1319 33.8349 77.4288 33.4703C76.7321 33.0992 76.2667 32.5946 76.0323 31.9566ZM86.4327 33.6363V26.2339H85.0948V24.0562H86.4327V20.8726H89.2159V24.0562H90.5538V26.2339H89.2159V33.6363H86.4327ZM99.626 26.0972H106.14C106.153 26.1819 106.159 26.273 106.159 26.3707C106.166 26.4683 106.169 26.6181 106.169 26.8199C106.169 28.9618 105.557 30.6968 104.333 32.025C103.109 33.3531 101.527 34.0172 99.587 34.0172C97.3669 34.0172 95.5375 33.3108 94.0987 31.898C92.6599 30.4787 91.9405 28.6786 91.9405 26.4976C91.9405 24.3362 92.6631 22.5491 94.1085 21.1363C95.5538 19.7235 97.3799 19.0172 99.587 19.0172C100.752 19.0172 101.82 19.2613 102.79 19.7496C103.76 20.2379 104.626 20.967 105.388 21.9371L103.327 23.4605C102.813 22.8225 102.273 22.3635 101.706 22.0836C101.14 21.7971 100.485 21.6539 99.7432 21.6539C98.3305 21.6539 97.2009 22.0933 96.3545 22.9722C95.5082 23.8511 95.085 25.0263 95.085 26.4976C95.085 27.9429 95.5082 29.1116 96.3545 30.0035C97.2074 30.8889 98.3174 31.3316 99.6846 31.3316C100.687 31.3316 101.501 31.0972 102.126 30.6285C102.751 30.1532 103.064 29.5347 103.064 28.773V28.6168H99.626V26.0972ZM114.958 27.855C114.88 27.2496 114.659 26.7938 114.294 26.4879C113.936 26.1754 113.444 26.0191 112.819 26.0191C112.194 26.0191 111.693 26.1754 111.315 26.4879C110.944 26.7938 110.707 27.2496 110.603 27.855H114.958ZM117.712 29.5347H110.515C110.625 30.2248 110.876 30.7424 111.267 31.0875C111.657 31.426 112.188 31.5953 112.858 31.5953C113.366 31.5953 113.802 31.4976 114.167 31.3023C114.538 31.107 114.847 30.8108 115.095 30.4136L117.341 31.5367C116.82 32.3765 116.189 33.0015 115.446 33.4117C114.704 33.8153 113.822 34.0172 112.8 34.0172C111.25 34.0172 110.023 33.5549 109.118 32.6304C108.213 31.706 107.761 30.4625 107.761 28.9C107.761 27.3961 108.233 26.1591 109.177 25.189C110.127 24.219 111.342 23.7339 112.819 23.7339C114.343 23.7339 115.547 24.1897 116.433 25.1011C117.318 26.0061 117.761 27.2431 117.761 28.8121C117.761 28.8967 117.758 28.9911 117.751 29.0953C117.745 29.1929 117.731 29.3394 117.712 29.5347ZM119.821 33.6363V24.0562H122.546V25.5601C123.047 24.9351 123.584 24.4761 124.157 24.1832C124.737 23.8837 125.378 23.7339 126.081 23.7339C126.823 23.7339 127.445 23.8609 127.946 24.1148C128.454 24.3622 128.855 24.7431 129.148 25.2574C129.291 25.5243 129.392 25.827 129.45 26.1656C129.515 26.4976 129.548 27.0217 129.548 27.7379V28.0406V33.6363H126.765V28.9C126.765 27.7216 126.628 26.9436 126.355 26.566C126.081 26.1884 125.612 25.9996 124.948 25.9996C124.564 25.9996 124.209 26.081 123.884 26.2437C123.565 26.4 123.298 26.6246 123.083 26.9175C122.914 27.1454 122.79 27.4058 122.712 27.6988C122.64 27.9918 122.605 28.4377 122.605 29.0367V29.4175V33.6363H119.821ZM132.048 20.1207C132.048 19.678 132.207 19.2971 132.526 18.9781C132.845 18.6591 133.226 18.4996 133.669 18.4996C134.118 18.4996 134.502 18.6591 134.821 18.9781C135.147 19.2906 135.31 19.6714 135.31 20.1207C135.31 20.5699 135.147 20.954 134.821 21.273C134.502 21.592 134.118 21.7515 133.669 21.7515C133.226 21.7515 132.845 21.5888 132.526 21.2632C132.207 20.9377 132.048 20.5569 132.048 20.1207ZM132.292 33.6363V24.0562H135.065V33.6363H132.292ZM140.612 24.0562V29.0953C140.612 29.9416 140.775 30.5471 141.101 30.9117C141.433 31.2763 141.97 31.4586 142.712 31.4586C143.448 31.4586 143.981 31.2763 144.314 30.9117C144.646 30.5406 144.812 29.9351 144.812 29.0953V24.0562H147.595V29.0953C147.595 30.7815 147.201 32.025 146.413 32.8257C145.625 33.62 144.405 34.0172 142.751 34.0172C141.065 34.0172 139.825 33.62 139.03 32.8257C138.243 32.0315 137.849 30.788 137.849 29.0953V24.0562H140.612ZM149.333 31.9566L151.472 30.8531C151.543 31.2242 151.735 31.5172 152.048 31.732C152.36 31.9468 152.748 32.0543 153.21 32.0543C153.666 32.0543 154.024 31.9729 154.284 31.8101C154.545 31.6408 154.675 31.4097 154.675 31.1168C154.675 30.6545 154.213 30.2672 153.288 29.9547C153.002 29.857 152.774 29.7756 152.605 29.7105C151.478 29.2873 150.697 28.8609 150.261 28.4312C149.831 28.0015 149.616 27.4709 149.616 26.8394C149.616 25.9019 149.984 25.1435 150.72 24.564C151.455 23.9846 152.426 23.6949 153.63 23.6949C154.489 23.6949 155.231 23.8674 155.856 24.2125C156.488 24.5575 156.947 25.0458 157.233 25.6773L155.192 26.6929C155.082 26.3349 154.89 26.0647 154.616 25.8824C154.343 25.6936 154.001 25.5992 153.591 25.5992C153.181 25.5992 152.849 25.6838 152.595 25.8531C152.341 26.0224 152.214 26.2437 152.214 26.5172C152.214 26.9924 152.845 27.4351 154.108 27.8453C154.258 27.8908 154.372 27.9267 154.45 27.9527C155.498 28.2977 156.244 28.7014 156.687 29.1636C157.129 29.6194 157.351 30.202 157.351 30.9117C157.351 31.8622 156.983 32.6174 156.247 33.1773C155.511 33.7372 154.519 34.0172 153.269 34.0172C152.279 34.0172 151.433 33.8349 150.73 33.4703C150.033 33.0992 149.567 32.5946 149.333 31.9566Z" fill="white"/>
</svg>
