<svg width="210" height="50" viewBox="0 0 210 50" fill="none" xmlns="http://www.w3.org/2000/svg">
<path d="M193.338 10.8488L183.884 22.8082H182.718L187.692 10.8499" fill="white"/>
<path d="M11.7273 39.8332C8.54307 39.8332 5.7308 39.0427 3.66116 37.9893L1.5915 39.8332H0.636364L0 28.1368L1.11334 28.032C4.45692 35.6191 8.38371 38.041 12.046 38.041C15.8666 38.041 18.0956 35.566 18.0956 32.2473C18.0956 29.0855 16.8748 27.5578 11.8867 25.5038C10.1889 24.8182 8.22549 24.1329 6.5797 23.3422C2.86542 21.4996 0.902007 18.6008 0.902007 14.7549C0.902007 8.4843 6.36717 4.69155 11.7273 4.69155C14.3813 4.69155 16.1854 5.42867 17.9363 6.43018L20.0059 4.63953H20.9079L21.8111 14.9659L20.7497 15.1243C17.83 9.32787 14.6989 6.48339 11.2503 6.48339C8.22547 6.48339 6.20898 8.48437 6.20898 11.5931C6.20898 14.0694 7.26915 15.9666 11.0377 17.6005C12.8949 18.4428 15.0708 19.1801 17.0342 20.1287C21.3329 22.184 23.3495 24.8714 23.3495 28.7693C23.3495 35.7242 17.4593 39.8333 11.7273 39.8333" fill="white"/>
<path d="M39.5878 39.8834C31.5217 39.8834 27.5417 34.1414 27.5417 27.1348C27.5417 20.6543 32.1061 14.4369 40.2785 14.4369C48.3458 14.4369 52.2183 20.1269 52.2183 27.0816C52.2183 33.6152 47.7602 39.8834 39.5878 39.8834ZM39.8003 15.9128C36.086 15.9128 33.8039 20.0219 33.8039 27.2399C33.8039 34.3525 36.2443 38.4074 40.0128 38.4074C43.8865 38.4074 46.0094 34.2996 46.0094 27.0816C46.0094 19.9687 43.7271 15.9128 39.8003 15.9128Z" fill="white"/>
<path d="M63.7363 39.6725C59.5439 39.6725 58.218 37.6197 58.218 33.8266V18.072H54.2888V17.3347L59.1731 13.4884L63.0468 8.48279H63.8426V15.3327H71.9087V18.072H63.8426V31.7185C63.8426 33.8266 64.1613 35.0915 65.2239 35.8275C66.1247 36.46 67.3467 36.6711 69.0964 36.6711C69.9453 36.6711 71.0067 36.6179 72.0149 36.5663L72.0681 37.3035C69.9985 38.5672 66.6018 39.6725 63.7364 39.6725" fill="white"/>
<path d="M88.5194 18.4414C86.5028 18.4414 84.9621 18.8104 82.9987 19.759V37.1984L85.9704 38.3039V39.0413H73.9775V38.3039L77.3222 37.1984V5.37528L73.661 3.00418V2.47646L82.7886 0.000244141L82.9987 0.158569V18.5993L83.2124 18.7046C86.3435 15.7538 89.2089 14.4372 92.0743 14.4372C96.8511 14.4372 98.8677 18.0201 98.8677 21.7612V37.1985L102.21 38.3039V39.0415H90.2171V38.3039L93.1888 37.1985V23.9201C93.1888 20.4967 91.8098 18.4415 88.5194 18.4415" fill="white"/>
<path d="M110.07 25.344C110.07 32.0359 111.98 36.409 117.977 36.409C120.631 36.409 122.808 35.8817 125.99 34.7232L126.308 35.3556C123.071 38.1457 119.463 39.8848 116.067 39.8848C108.796 39.8848 104.018 34.9331 104.018 27.6103C104.018 20.0764 109.75 14.4383 116.226 14.4383C123.231 14.4383 126.628 19.1266 126.574 25.344H110.07ZM120.631 23.5532C120.418 18.6003 118.985 15.9142 115.854 15.9142C112.776 15.9142 110.389 19.1266 110.123 24.0275L120.631 23.5532Z" fill="white"/>
<path d="M140.691 39.8833C137.932 39.8833 134.271 39.2521 131.723 38.5136V5.37504L128.009 3.00381V2.47622L137.189 0L137.402 0.158207V17.8086L137.614 17.9151C139.472 16.0709 142.018 14.437 145.309 14.437C150.35 14.437 154.913 19.0217 154.913 26.5556C154.913 34.0895 149.182 39.8834 140.691 39.8834V39.8833ZM141.596 18.1248C140.002 18.1248 138.675 18.441 137.402 18.9684V35.6705C139.047 37.3564 141.169 38.0924 143.186 38.0924C146.317 38.0924 148.917 35.3011 148.917 27.872C148.917 21.3396 146.104 18.1248 141.596 18.1248Z" fill="white"/>
<path d="M169.455 40.6739C166.802 47.1544 164.31 50 161.018 50C158.206 50 156.879 48.3673 156.879 46.6802C156.879 45.0475 158.364 43.6775 160.063 43.6775C161.867 43.6775 162.928 44.625 164.202 46.2061C165.21 45.0992 166.43 43.2033 167.121 41.7273L168.023 39.7253L158.63 17.2295L155.392 15.965V15.2806H168.343V15.965L164.945 17.2295L170.676 32.6668H170.941L176.142 17.5989L173.064 15.965V15.2806H182.193V15.965L178.742 17.7038L169.455 40.674" fill="white"/>
<path d="M199.71 39.8832C196.792 39.8832 194.299 39.4091 191.856 38.4616L191.803 31.5079L192.865 31.402C195.73 36.4077 197.907 38.3034 200.718 38.3034C203.214 38.3034 204.752 36.7238 204.752 34.2995C204.752 31.5599 201.94 30.5065 198.916 29.2948C195.571 27.872 192.017 26.2923 192.017 21.9188C192.017 17.7566 195.73 14.4369 201.145 14.4369C203.214 14.4369 206.133 14.859 207.564 15.3854L207.723 21.6545L206.715 21.9188C204.116 17.6506 202.418 16.0177 199.977 16.0177C197.747 16.0177 196.369 17.4923 196.369 19.3893C196.369 22.1302 199.234 23.2357 202.259 24.4474C205.6 25.817 209.211 27.3978 209.211 31.8761C209.211 36.777 204.859 39.8834 199.71 39.8834" fill="white"/>
</svg>
